<?xml version="1.0" encoding="UTF-8"?>
<svg version="1.1" xmlns="http://www.w3.org/2000/svg" width="283" height="93">
<path d="M0 0 C93.39 0 186.78 0 283 0 C283 30.69 283 61.38 283 93 C189.61 93 96.22 93 0 93 C0 62.31 0 31.62 0 0 Z " fill="#FDFDFE" transform="translate(0,0)"/>
<path d="M0 0 C2.866875 -0.061875 5.73375 -0.12375 8.6875 -0.1875 C10.02880981 -0.22846802 10.02880981 -0.22846802 11.3972168 -0.27026367 C16.08935444 -0.3192004 19.22122733 -0.09960512 23 3 C25.68468038 7.02702057 25.68187737 10.2684363 25 15 C22.85431306 18.6016888 20.85239073 20.45216444 17 22 C14.421875 22.1953125 14.421875 22.1953125 11.75 22.125 C10.1825 22.08375 8.615 22.0425 7 22 C7 26.29 7 30.58 7 35 C4.69 35 2.38 35 0 35 C0 23.45 0 11.9 0 0 Z " fill="#5245FF" transform="translate(110,30)"/>
<path d="M0 0 C3.27943293 1.27599754 3.95973799 1.93960698 6 5 C6.14245897 7.76655324 6.18769445 10.42653306 6.125 13.1875 C6.11597656 13.93708984 6.10695312 14.68667969 6.09765625 15.45898438 C6.07412578 17.30612654 6.03825561 19.15310412 6 21 C6.99 21 7.98 21 9 21 C9.042721 22.66611905 9.04063832 24.33382885 9 26 C8 27 8 27 5.6875 27.25 C2.55923162 26.95899829 1.31322267 26.05619793 -1 24 C-1.53625 24.495 -2.0725 24.99 -2.625 25.5 C-5.74008151 27.4674199 -7.37170989 27.5923739 -11 27 C-14.31669279 24.54853142 -15.76080628 23.04375441 -16.6875 19 C-15.90011149 15.56412287 -14.61843928 14.0668629 -11.80078125 11.96875 C-8.96586449 10.44367547 -6.17216589 10.19032995 -3 10 C-2.67 8.68 -2.34 7.36 -2 6 C-6.21878192 5.80377759 -9.17010894 6.19769832 -13 8 C-13.66 6.68 -14.32 5.36 -15 4 C-10.15389092 0.02370537 -6.2481578 -0.97698467 0 0 Z " fill="#5347FF" transform="translate(247,38)"/>
<path d="M0 0 C2.31 0 4.62 0 7 0 C8.98 5.28 10.96 10.56 13 16 C15.10850329 12.83724506 16.28830876 9.86528462 17.625 6.3125 C18.07101563 5.13300781 18.51703125 3.95351563 18.9765625 2.73828125 C19.31429687 1.83464844 19.65203125 0.93101563 20 0 C22.31 0 24.62 0 27 0 C24.6144509 7.35868078 21.97625891 14.59727399 19.1875 21.8125 C18.77435547 22.93076172 18.36121094 24.04902344 17.93554688 25.20117188 C14.4046873 34.27042136 14.4046873 34.27042136 10.87890625 36.7421875 C7.64304171 38.15595735 5.49458953 38.39711245 2 38 C1.34 37.67 0.68 37.34 0 37 C0 35.35 0 33.7 0 32 C2.97 31.67 5.94 31.34 9 31 C8.54048341 23.81549466 6.76559665 18.15162329 3.9375 11.5625 C3.19380113 9.79414935 2.45277398 8.02467191 1.71484375 6.25390625 C1.38605225 5.48377197 1.05726074 4.7136377 0.71850586 3.92016602 C0 2 0 2 0 0 Z " fill="#5448FF" transform="translate(192,38)"/>
<path d="M0 0 C2.31 0 4.62 0 7 0 C11 6.75 11 6.75 11 9 C11.66 9 12.32 9 13 9 C13.103125 8.2575 13.20625 7.515 13.3125 6.75 C14.0752706 3.69891759 14.69507009 2.14596923 17 0 C20.1875 -0.25 20.1875 -0.25 23 0 C22.04372949 3.16304862 21.13779207 5.79076018 19.3125 8.5625 C17.64971225 11.6505344 18.06635383 12.6781852 19 16 C20.16318018 18.40419194 20.16318018 18.40419194 21.5625 20.6875 C24 24.79603399 24 24.79603399 24 27 C21.69 27 19.38 27 17 27 C15.35 24.03 13.7 21.06 12 18 C9.525 22.455 9.525 22.455 7 27 C4.69 27 2.38 27 0 27 C1.03523809 23.46293653 2.23423461 20.55769817 4.25 17.5 C6.33637558 14.18108923 6.33637558 14.18108923 5.5 10.9375 C3.88716434 7.77903017 1.99622971 4.92780358 0 2 C0 1.34 0 0.68 0 0 Z " fill="#564AFF" transform="translate(152,38)"/>
<path d="M0 0 C2.31 0 4.62 0 7 0 C7 10.23 7 20.46 7 31 C7.99 31 8.98 31 10 31 C10 32.98 10 34.96 10 37 C4.375 37.25 4.375 37.25 1 35 C-0.1687481 31.4937557 -0.12514267 28.3522134 -0.09765625 24.70703125 C-0.0962413 24.00100266 -0.09482635 23.29497406 -0.09336853 22.56755066 C-0.08777764 20.31582374 -0.07522688 18.06419679 -0.0625 15.8125 C-0.05748382 14.28450665 -0.05292112 12.75651173 -0.04882812 11.22851562 C-0.0378112 7.48563865 -0.02055287 3.74283627 0 0 Z " fill="#5549FF" transform="translate(180,28)"/>
<path d="M0 0 C1.90845703 0.04060547 1.90845703 0.04060547 3.85546875 0.08203125 C5.31919922 0.13423828 5.31919922 0.13423828 6.8125 0.1875 C3.94249596 4.03235102 0.8749814 6.95353616 -2.875 9.9375 C-3.84824219 10.71609375 -4.82148437 11.4946875 -5.82421875 12.296875 C-6.60410156 12.92078125 -7.38398437 13.5446875 -8.1875 14.1875 C-8.5175 14.5175 -8.8475 14.8475 -9.1875 15.1875 C-11.37389453 15.26008946 -13.56250389 15.27123783 -15.75 15.25 C-17.54630859 15.23646484 -17.54630859 15.23646484 -19.37890625 15.22265625 C-20.30574219 15.21105469 -21.23257813 15.19945312 -22.1875 15.1875 C-20.89352116 11.30556349 -19.00796071 10.20361079 -15.8125 7.6875 C-12.03859792 4.81704349 -12.03859792 4.81704349 -8.78515625 1.41796875 C-6.09479647 -0.65406873 -3.29649379 -0.09072919 0 0 Z " fill="#5C51E6" transform="translate(69.1875,30.8125)"/>
<path d="M0 0 C5.12448951 -0.91934363 10.29875918 -1.60295632 14.95751953 1.16162109 C19.28787614 4.43294076 23.11439158 8.22277676 27 12 C27.66 12.33 28.32 12.66 29 13 C29 13.66 29 14.32 29 15 C23.13214441 15.755638 18.08423168 16.23808034 12.86328125 13.13671875 C10.12628284 10.85526441 7.55946348 8.47742939 5 6 C4.071875 5.28328125 3.14375 4.5665625 2.1875 3.828125 C1.465625 3.22484375 0.74375 2.6215625 0 2 C0 1.34 0 0.68 0 0 Z " fill="#5C50E6" transform="translate(2,31)"/>
<path d="M0 0 C0.90624191 3.93479392 1.02721084 7.07577059 0 11 C-4.10419325 16.64595387 -10.52698037 22.29222694 -17 25 C-18.0506952 20.68047528 -18.20308827 17.3035371 -17 13 C-13.58108044 8.62113965 -5.86148322 0 0 0 Z " fill="#564AE5" transform="translate(37,52)"/>
<path d="M0 0 C16.21517594 10.56151667 16.21517594 10.56151667 17.70703125 17.09765625 C17.68948543 19.8172586 17.50255134 22.32987871 17 25 C10.76138677 22.25130407 4.1290369 17.5070468 0 12 C-1.05662381 7.76863553 -0.8681597 4.25175649 0 0 Z " fill="#5549E5" transform="translate(41,52)"/>
<path d="M0 0 C0.66 0 1.32 0 2 0 C3.05541587 9.26420597 3.05541587 9.26420597 0.7578125 13.04296875 C-1.06264177 14.87600681 -2.94339513 16.4360845 -5 18 C-5.80308594 18.65355469 -6.60617188 19.30710937 -7.43359375 19.98046875 C-13.69548403 25 -13.69548403 25 -15 25 C-15.95774681 20.71294286 -16.13995916 17.26642943 -15 13 C-11.19407922 8.15124871 -5.94400426 4.59952844 -1 1 C-0.67 0.67 -0.34 0.34 0 0 Z " fill="#5549E5" transform="translate(56,18)"/>
<path d="M0 0 C1.89672754 1.36440346 3.7673765 2.75316104 5.62109375 4.17578125 C7.23511021 5.41345889 8.87456036 6.61852574 10.53515625 7.79296875 C16.72192362 12.54824954 16.72192362 12.54824954 17.56640625 16.95703125 C17.56288928 19.69675336 17.40319918 22.2920944 17 25 C10.76138677 22.25130407 4.1290369 17.5070468 0 12 C-1.05662381 7.76863553 -0.8681597 4.25175649 0 0 Z " fill="#564AE5" transform="translate(20,18)"/>
<path d="M0 0 C-4.15102433 5.5346991 -8.82389958 10.74601262 -15 14 C-19.75154196 14.64143349 -24.23989655 14.49384359 -29 14 C-27.92368286 12.88780562 -26.83705007 11.78497722 -25.72265625 10.7109375 C-24.41150792 9.40870854 -23.15799554 8.04816888 -21.93359375 6.6640625 C-15.06081556 -0.51442411 -9.70476588 -1.13268881 0 0 Z " fill="#564BE5" transform="translate(30,50)"/>
<path d="M0 0 C11.76189035 -1.37278547 11.76189035 -1.37278547 16.98046875 1.828125 C19.47858732 4.11082336 21.75871338 6.46637164 24 9 C25.03481639 10.02777682 26.07485899 11.05038638 27.125 12.0625 C27.74375 12.701875 28.3625 13.34125 29 14 C17.23810965 15.37278547 17.23810965 15.37278547 12.01953125 12.171875 C9.52141268 9.88917664 7.24128662 7.53362836 5 5 C3.96518361 3.97222318 2.92514101 2.94961362 1.875 1.9375 C1.25625 1.298125 0.6375 0.65875 0 0 Z " fill="#564AE5" transform="translate(47,50)"/>
<path d="M0 0 C2.31 0 4.62 0 7 0 C7 8.91 7 17.82 7 27 C4.69 27 2.38 27 0 27 C0 18.09 0 9.18 0 0 Z " fill="#5B4FFF" transform="translate(260,38)"/>
<path d="M0 0 C2.31 0 4.62 0 7 0 C7 8.91 7 17.82 7 27 C4.69 27 2.38 27 0 27 C0 18.09 0 9.18 0 0 Z " fill="#5B4FFF" transform="translate(141,38)"/>
<path d="M0 0 C0.33 0.99 0.66 1.98 1 3 C0.01 3.33 -0.98 3.66 -2 4 C-1.64950425 7.24208567 -1.43778819 8.61527704 1.0625 10.8125 C1.701875 11.204375 2.34125 11.59625 3 12 C2.67 12.99 2.34 13.98 2 15 C-2.01686987 15.46707789 -3.56501812 15.32150834 -6.875 12.875 C-9 10 -9 10 -9.5625 6.9375 C-8.48910044 1.33196897 -5.5745542 -0.61939491 0 0 Z " fill="#5245FF" transform="translate(240,50)"/>
<path d="M0 0 C7.35678392 -0.36180905 7.35678392 -0.36180905 10 1.125 C11.45670212 3.85631647 11.32339354 5.96010077 11 9 C9 11 9 11 6.8359375 11.1953125 C4.55729167 11.13020833 2.27864583 11.06510417 0 11 C0 7.37 0 3.74 0 0 Z " fill="#F6F5FF" transform="translate(117,35)"/>
<path d="M0 0 C2.4375 0.1875 2.4375 0.1875 3.4375 1.1875 C3.625 3.625 3.625 3.625 3.4375 6.1875 C2.7775 6.8475 2.1175 7.5075 1.4375 8.1875 C-1.1875 7.8125 -1.1875 7.8125 -3.5625 7.1875 C-4.1875 4.8125 -4.1875 4.8125 -4.5625 2.1875 C-2.5625 0.1875 -2.5625 0.1875 0 0 Z " fill="#574BFF" transform="translate(222.5625,56.8125)"/>
<path d="M0 0 C0.125 2.875 0.125 2.875 0 6 C-2 8 -2 8 -4.5625 8.1875 C-7 8 -7 8 -8 7 C-8.04063832 5.33382885 -8.042721 3.66611905 -8 2 C-5.09399739 0.74335022 -3.20395416 0 0 0 Z " fill="#F3F2FF" transform="translate(246,52)"/>
<path d="M0 0 C2.5625 0.1875 2.5625 0.1875 4.5625 2.1875 C4.02678571 5.72321429 4.02678571 5.72321429 2.5625 7.1875 C0.0625 7.3125 0.0625 7.3125 -2.4375 7.1875 C-3.4375 6.1875 -3.4375 6.1875 -3.5625 3.6875 C-3.39599509 0.35740177 -3.31519894 0.2550153 0 0 Z " fill="#5346FF" transform="translate(263.4375,27.8125)"/>
<path d="M0 0 C2.5 0.125 2.5 0.125 3.5 1.125 C3.625 3.625 3.625 3.625 3.5 6.125 C2.5 7.125 2.5 7.125 0.0625 7.3125 C-2.5 7.125 -2.5 7.125 -4.5 5.125 C-3.7519084 0.18759542 -3.7519084 0.18759542 0 0 Z " fill="#5347FF" transform="translate(144.5,27.875)"/>
<path d="M0 0 C0.99 0 1.98 0 3 0 C3.042721 1.66611905 3.04063832 3.33382885 3 5 C2 6 2 6 -0.5625 6.0625 C-1.7690625 6.0315625 -1.7690625 6.0315625 -3 6 C-3 5.34 -3 4.68 -3 4 C-1.68 4 -0.36 4 1 4 C0.67 2.68 0.34 1.36 0 0 Z " fill="#6B60FF" transform="translate(253,59)"/>
</svg>
